<?xml version="1.0" encoding="UTF-8"?>
<svg version="1.1" xmlns="http://www.w3.org/2000/svg" width="1437" height="1436">
<path d="M0 0 C2.17043348 -0.00258734 4.34086648 -0.00560152 6.51129884 -0.0090034 C12.45158257 -0.01703383 18.39185419 -0.01886076 24.33214271 -0.01960087 C30.74908575 -0.02145844 37.1660226 -0.02900946 43.58296204 -0.03573608 C58.33745053 -0.0500001 73.09193653 -0.05584327 87.84643072 -0.06042803 C95.15109449 -0.06276939 102.45575749 -0.0663727 109.76042065 -0.07012341 C134.80626671 -0.08295735 159.85211234 -0.09367472 184.89796162 -0.09712601 C186.46852706 -0.09734763 188.03909251 -0.09756942 189.60965795 -0.09779136 C191.18384734 -0.09801199 192.75803672 -0.09823248 194.3322261 -0.09845281 C197.48989125 -0.09889534 200.6475564 -0.09934246 203.80522156 -0.09979248 C204.58813153 -0.09990187 205.3710415 -0.10001126 206.17767602 -0.10012397 C231.52459384 -0.10374908 256.87148297 -0.11964928 282.21838981 -0.14298284 C309.06845705 -0.16765456 335.91850792 -0.18130232 362.76858681 -0.18249393 C365.72405287 -0.18266535 368.67951892 -0.18288077 371.63498497 -0.18312836 C372.36260953 -0.18318413 373.0902341 -0.18323989 373.83990789 -0.18329735 C385.48276616 -0.18444168 397.12559469 -0.19541092 408.76844297 -0.21001541 C420.50383493 -0.22447974 432.23918612 -0.22731235 443.97458462 -0.21957543 C450.31573572 -0.21569812 456.65678809 -0.21645364 462.99792671 -0.23063278 C555.97757094 -0.4264313 645.53284644 18.85118681 725.87528992 67.51202393 C728.3846741 69.02893461 730.90583835 70.52350423 733.43241882 72.01153564 C744.27018195 78.4437134 754.48949302 85.58191245 764.56913757 93.14044189 C765.18692078 93.60369873 765.80470398 94.06695557 766.44120789 94.54425049 C773.97196111 100.21842035 781.33457169 106.09349285 788.56913757 112.14044189 C789.08524597 112.57018311 789.60135437 112.99992432 790.13310242 113.44268799 C806.17806392 126.84303356 822.19607593 141.13529356 835.77616882 157.07012939 C837.90060581 159.523183 840.11102394 161.88747337 842.31913757 164.26544189 C847.55462504 170.01421244 852.34972812 176.04370209 857.08329773 182.20880127 C858.63705219 184.22873313 860.2022024 186.23948759 861.76835632 188.24981689 C869.06013267 197.64723988 876.01244867 207.21560686 882.56913757 217.14044189 C883.03110535 217.83766357 883.49307312 218.53488525 883.96903992 219.25323486 C927.74534679 285.78061518 953.17617118 362.04955485 960.56913757 441.14044189 C960.65832671 442.02908312 960.74751585 442.91772435 960.83940768 443.83329409 C961.79043943 454.39423312 961.7146633 464.93997323 961.70957947 475.53334045 C961.71216682 477.69964913 961.71518101 479.86595734 961.71858287 482.03226489 C961.72661315 487.96114705 961.72844022 493.89001708 961.72918034 499.81890404 C961.73103793 506.22357703 961.73858897 512.62824383 961.74531555 519.03291321 C961.75957946 533.75914142 961.76542273 548.48536715 961.7700075 563.21160107 C961.77234887 570.50231262 961.77595219 577.79302339 961.77970287 585.08373433 C961.79253681 610.08186013 961.80325418 635.0799855 961.80670547 660.07811451 C961.8069271 661.64568237 961.80714889 663.21325023 961.80737083 664.78081809 C961.80759146 666.35200247 961.80781194 667.92318685 961.80803227 669.49437124 C961.8084748 672.64600742 961.80892193 675.7976436 961.80937195 678.94927979 C961.80948134 679.73069492 961.80959073 680.51211005 961.80970344 681.31720442 C961.81332853 706.61562046 961.82922868 731.91400774 961.85256231 757.21241278 C961.87723424 784.01125146 961.8908818 810.81007374 961.89207339 837.60892409 C961.89224482 840.55877316 961.89246024 843.50862223 961.89270782 846.4584713 C961.89276359 847.18471271 961.89281936 847.91095412 961.89287682 848.65920285 C961.89402113 860.27974516 961.90499022 871.90025766 961.91959488 883.52078995 C961.93405948 895.23377778 961.93689168 906.94672476 961.9291549 918.65971915 C961.92527768 924.98871872 961.92603263 931.31761937 961.94021225 937.64660645 C962.13632831 1030.59566857 942.84059039 1120.13354355 894.19755554 1200.44659424 C892.68064486 1202.95597842 891.18607524 1205.47714267 889.69804382 1208.00372314 C883.26586607 1218.84148627 876.12766702 1229.06079734 868.56913757 1239.14044189 C868.10588074 1239.7582251 867.6426239 1240.3760083 867.16532898 1241.01251221 C861.49115912 1248.54326544 855.61608662 1255.90587601 849.56913757 1263.14044189 C849.13939636 1263.65655029 848.70965515 1264.17265869 848.26689148 1264.70440674 C834.8665459 1280.74936825 820.57428591 1296.76738025 804.63945007 1310.34747314 C802.18639647 1312.47191013 799.8221061 1314.68232826 797.44413757 1316.89044189 C791.69536702 1322.12592936 785.66587738 1326.92103245 779.5007782 1331.65460205 C777.48084634 1333.20835651 775.47009187 1334.77350673 773.45976257 1336.33966064 C764.06233959 1343.63143699 754.49397261 1350.58375299 744.56913757 1357.14044189 C743.87191589 1357.60240967 743.17469421 1358.06437744 742.4563446 1358.54034424 C675.92876427 1402.31678273 599.66015052 1427.74712435 520.56913757 1435.14044189 C519.68093679 1435.22963103 518.792736 1435.31882017 517.87762004 1435.410712 C507.30379135 1436.36325085 496.74459698 1436.28596392 486.13827515 1436.28088379 C483.96784167 1436.28347113 481.79740867 1436.28648531 479.62697631 1436.28988719 C473.68669258 1436.29791762 467.74642095 1436.29974455 461.80613244 1436.30048466 C455.3891894 1436.30234223 448.97225254 1436.30989325 442.55531311 1436.31661987 C427.80082462 1436.33088389 413.04633861 1436.33672706 398.29184443 1436.34131182 C390.98718065 1436.34365317 383.68251766 1436.34725649 376.37785449 1436.3510072 C351.33200844 1436.36384114 326.2861628 1436.37455851 301.24031353 1436.3780098 C299.66974808 1436.37823142 298.09918264 1436.37845321 296.52861719 1436.37867515 C294.95442781 1436.37889578 293.38023843 1436.37911626 291.80604905 1436.3793366 C288.64838389 1436.37977913 285.49071874 1436.38022625 282.33305359 1436.38067627 C281.55014362 1436.38078566 280.76723364 1436.38089505 279.96059913 1436.38100776 C254.6136813 1436.38463287 229.26679218 1436.40053307 203.91988534 1436.42386663 C177.06981809 1436.44853835 150.21976723 1436.46218611 123.36968833 1436.46337771 C120.41422228 1436.46354914 117.45875623 1436.46376456 114.50329018 1436.46401215 C113.77566561 1436.46406791 113.04804105 1436.46412368 112.29836726 1436.46418114 C100.65550898 1436.46532547 89.01268045 1436.47629471 77.36983218 1436.4908992 C65.63444021 1436.50536353 53.89908903 1436.50819614 42.16369053 1436.50045922 C35.82253943 1436.49658191 29.48148706 1436.49733743 23.14034843 1436.51151657 C-69.8392958 1436.70731509 -159.39457129 1417.42969698 -239.73701477 1368.76885986 C-242.24639895 1367.25194918 -244.7675632 1365.75737956 -247.29414368 1364.26934814 C-258.1319068 1357.83717039 -268.35121787 1350.69897134 -278.43086243 1343.14044189 C-279.04864563 1342.67718506 -279.66642883 1342.21392822 -280.30293274 1341.7366333 C-287.83368597 1336.06246344 -295.19629654 1330.18739094 -302.43086243 1324.14044189 C-302.94697083 1323.71070068 -303.46307922 1323.28095947 -303.99482727 1322.8381958 C-320.03978878 1309.43785022 -336.05780079 1295.14559023 -349.63789368 1279.21075439 C-351.76233067 1276.75770079 -353.97274879 1274.39341042 -356.18086243 1272.01544189 C-361.41634989 1266.26667134 -366.21145298 1260.2371817 -370.94502258 1254.07208252 C-372.49877704 1252.05215066 -374.06392726 1250.0413962 -375.63008118 1248.03106689 C-382.92185752 1238.63364391 -389.87417352 1229.06527693 -396.43086243 1219.14044189 C-396.8928302 1218.44322021 -397.35479797 1217.74599854 -397.83076477 1217.02764893 C-441.60707164 1150.50026861 -467.03789604 1074.23132894 -474.43086243 995.14044189 C-474.52005156 994.25180067 -474.6092407 993.36315944 -474.70113254 992.4475897 C-475.65216429 981.88665067 -475.57638815 971.34091056 -475.57130432 960.74754333 C-475.57389168 958.58123466 -475.57690586 956.41492645 -475.58030772 954.2486189 C-475.58833801 948.31973674 -475.59016507 942.39086671 -475.59090519 936.46197975 C-475.59276279 930.05730676 -475.60031382 923.65263996 -475.60704041 917.24797058 C-475.62130431 902.52174237 -475.62714758 887.79551664 -475.63173235 873.06928272 C-475.63407372 865.77857117 -475.63767704 858.4878604 -475.64142773 851.19714946 C-475.65426167 826.19902366 -475.66497903 801.20089829 -475.66843033 776.20276928 C-475.66865195 774.63520142 -475.66887374 773.06763356 -475.66909568 771.5000657 C-475.66931631 769.92888132 -475.6695368 768.35769694 -475.66975713 766.78651255 C-475.67019966 763.63487637 -475.67064678 760.48324019 -475.6710968 757.331604 C-475.67120619 756.55018887 -475.67131558 755.76877374 -475.67142829 754.96367937 C-475.67505339 729.66526333 -475.69095354 704.36687604 -475.71428717 679.06847101 C-475.73895909 652.26963233 -475.75260665 625.47081005 -475.75379825 598.6719597 C-475.75396967 595.72211063 -475.75418509 592.77226156 -475.75443268 589.82241249 C-475.75448845 589.09617108 -475.75454422 588.36992967 -475.75460167 587.62168094 C-475.75574598 576.00113863 -475.76671507 564.38062613 -475.78131973 552.76009384 C-475.79578434 541.04710601 -475.79861653 529.33415903 -475.79087976 517.62116464 C-475.78700254 511.29216507 -475.78775748 504.96326442 -475.8019371 498.63427734 C-475.99805317 405.68521522 -456.70231525 316.14734024 -408.0592804 235.83428955 C-406.54236971 233.32490537 -405.0478001 230.80374112 -403.55976868 228.27716064 C-397.12759092 217.43939752 -389.98939187 207.22008645 -382.43086243 197.14044189 C-381.96760559 196.52265869 -381.50434875 195.90487549 -381.02705383 195.26837158 C-375.35288397 187.73761835 -369.47781147 180.37500778 -363.43086243 173.14044189 C-363.00112122 172.6243335 -362.57138 172.1082251 -362.12861633 171.57647705 C-348.72827076 155.53151554 -334.43601076 139.51350353 -318.50117493 125.93341064 C-316.04812132 123.80897366 -313.68383096 121.59855553 -311.30586243 119.39044189 C-305.55709188 114.15495443 -299.52760223 109.35985134 -293.36250305 104.62628174 C-291.34257119 103.07252728 -289.33181673 101.50737706 -287.32148743 99.94122314 C-277.92406444 92.6494468 -268.35569746 85.6971308 -258.43086243 79.14044189 C-257.73364075 78.67847412 -257.03641907 78.21650635 -256.31806946 77.74053955 C-189.79048912 33.96410106 -113.52187537 8.53375944 -34.43086243 1.14044189 C-33.54266164 1.05125276 -32.65446086 0.96206362 -31.73934489 0.87017179 C-21.1655162 -0.08236706 -10.60632183 -0.00508013 0 0 Z " fill="#1D1D1F" transform="translate(475.4308624267578,-0.14044189453125)"/>
<path d="M0 0 C40.59 0 81.18 0 123 0 C124.7834604 4.1614076 126.37843991 7.89204056 127.68359375 12.14453125 C127.97169922 13.06943359 128.25980469 13.99433594 128.55664062 14.94726562 C129.14025131 16.84561788 129.72358812 18.74405436 130.30664062 20.64257812 C130.59603516 21.57134766 130.88542969 22.50011719 131.18359375 23.45703125 C131.43681396 24.28178955 131.69003418 25.10654785 131.95092773 25.95629883 C132.83778134 28.5293507 133.81094223 31.01647904 134.84150982 33.53351212 C136.95428006 38.79792763 138.80050083 44.1243212 140.58491516 49.50750732 C140.92232875 50.51733366 141.25974233 51.52716 141.60738057 52.56758714 C142.72848537 55.92530119 143.84532449 59.28441781 144.9621582 62.64355469 C145.7688611 65.0625895 146.57582389 67.48153765 147.38302612 69.90040588 C149.34293859 75.7758075 151.30007398 81.65212774 153.25590388 87.52888945 C155.54084051 94.39413646 157.82894536 101.25832622 160.11715879 108.12248161 C164.20679534 120.39089126 168.29353918 132.66026254 172.37866211 144.93017578 C176.32701889 156.78929605 180.27745327 168.64772149 184.23022461 180.50537109 C184.47313653 181.23406689 184.71604844 181.96276268 184.96632133 182.71354017 C185.20884445 183.44106918 185.45136757 184.1685982 185.70123988 184.91817355 C190.21883755 198.47027265 194.73445016 212.02303246 199.24916202 225.57609318 C200.83596018 230.33947908 202.42333015 235.10267418 204.01088905 239.86580658 C206.15878089 246.31024451 208.30496878 252.75524802 210.45009995 259.20060539 C211.23196927 261.54910134 212.01432405 263.89743574 212.79723549 266.24558449 C216.82520064 278.32760944 220.82655586 290.41330088 224.58501464 302.5824945 C226.2118467 307.7819121 228.06336519 312.83292517 230.1328522 317.87306535 C231.15440045 320.37871245 232.05273725 322.91082198 232.90698242 325.47802734 C233.22378464 326.42535736 233.54058685 327.37268738 233.86698914 328.34872437 C234.19318741 329.3345047 234.51938568 330.32028503 234.85546875 331.3359375 C235.20257401 332.37771149 235.54967926 333.41948547 235.90730286 334.49282837 C236.63388388 336.6755711 237.35901973 338.85879539 238.08276367 341.04248047 C239.19166454 344.38756264 240.30543234 347.73099492 241.41992188 351.07421875 C242.12788856 353.20303044 242.83558065 355.33193348 243.54296875 357.4609375 C243.87523972 358.45886322 244.20751068 359.45678894 244.54985046 360.48495483 C244.8571962 361.41337189 245.16454193 362.34178894 245.48120117 363.29833984 C245.75115402 364.11201019 246.02110687 364.92568054 246.29924011 365.76400757 C246.94667369 367.82984583 247.50003409 369.89418059 248 372 C247.56746305 360.16339755 246.95336796 348.39744893 245.71420288 336.61717224 C243.54458416 315.58092452 242.05567137 294.48021109 240.87890625 273.3671875 C240.8346882 272.57396977 240.79047014 271.78075203 240.74491215 270.9634974 C238.00898938 221.17341382 238.53700799 171.30755447 238.71189147 121.46142167 C238.74387468 112.17749532 238.76561748 102.89358548 238.78027344 93.60961914 C238.78132433 92.94582686 238.78237523 92.28203458 238.78345796 91.59812739 C238.78868206 88.26461412 238.79372668 84.93110063 238.79870558 81.59758699 C238.83984433 54.39828274 238.91280051 27.19919826 239 0 C270.02 0 301.04 0 333 0 C333 166.65 333 333.3 333 505 C292.41 505 251.82 505 210 505 C206.638125 494.935 203.27625 484.87 199.8125 474.5 C198.76167236 471.35662109 197.71084473 468.21324219 196.62817383 464.97460938 C195.77933879 462.43102991 194.93061732 459.88741254 194.08203125 457.34375 C193.86923019 456.70796021 193.65642914 456.07217041 193.43717957 455.41711426 C191.1439342 448.56406567 188.89554025 441.70194478 186.76464844 434.79614258 C183.14656083 423.10426079 179.21923003 411.51171387 175.34566379 399.90266585 C174.22156305 396.53293251 173.09895153 393.16270301 171.97608948 389.79255676 C170.09361562 384.14332771 168.2098932 378.49451616 166.32543945 372.84594727 C164.15653394 366.3446833 161.98980081 359.84269834 159.82417911 353.34033984 C157.95168137 347.71828987 156.07800074 342.09663514 154.20335346 336.47530156 C153.08932662 333.13476815 151.97568855 329.79410661 150.86312675 326.45308495 C149.62328807 322.73010909 148.38096871 319.00796356 147.13842773 315.28588867 C146.59671181 313.65770454 146.59671181 313.65770454 146.04405212 311.99662781 C144.38754151 307.04070421 142.68773846 302.11003969 140.88038635 297.2069397 C139.32663901 292.9708835 137.99200149 288.74751327 136.77539062 284.40307617 C133.40707212 272.67050602 129.46442881 261.12485057 125.59375 249.55078125 C124.78310543 247.12004297 123.97268484 244.68922997 123.16247559 242.25834656 C121.47329526 237.19235987 119.78219613 232.12702011 118.08935547 227.06225586 C116.14567128 221.24694364 114.20513425 215.430589 112.26639128 209.61362773 C110.38253356 203.96143965 108.49691454 198.30984053 106.61042786 192.65852928 C105.81595182 190.27825851 105.02182599 187.89787081 104.22807312 185.51735878 C98.74073337 169.04179353 98.74073337 169.04179353 92.94927979 152.6716156 C91.55329555 148.7428126 90.37607873 144.76307251 89.25 140.75 C87.92704674 135.7631869 87.92704674 135.7631869 86 131 C86.08040527 131.92296875 86.16081055 132.8459375 86.24365234 133.796875 C88.71150243 162.29860721 90.61683495 190.80322158 92.0625 219.375 C92.12293991 220.56337463 92.12293991 220.56337463 92.18460083 221.77575684 C92.4744721 227.51638866 92.74136016 233.25788308 93 239 C93.06403938 240.41335164 93.06403938 240.41335164 93.12937248 241.85525584 C93.84178811 257.90609132 94.14106529 273.9175478 94.11352539 289.98291016 C94.11324227 292.35124714 94.11340367 294.71958421 94.1139679 297.08792114 C94.11425102 303.42503028 94.10843388 309.76211991 94.10139394 316.09922457 C94.09572114 322.07883556 94.09476562 328.0584467 94.09374207 334.03805988 C94.0915692 345.85887295 94.08495772 357.679679 94.07543945 369.50048828 C94.06621915 380.96337856 94.0591611 392.42626691 94.05493164 403.88916016 C94.05466892 404.59920828 94.05440619 405.30925641 94.05413551 406.04082115 C94.0528302 409.60396174 94.05156655 413.16710235 94.05032361 416.73024297 C94.04000612 446.15350059 94.0215981 475.57674817 94 505 C62.98 505 31.96 505 0 505 C0 338.35 0 171.7 0 0 Z " fill="#F4F4F6" transform="translate(772,272)"/>
<path d="M0 0 C34.98 0 69.96 0 106 0 C106.01458252 11.01391113 106.02916504 22.02782227 106.04418945 33.37548828 C106.0929739 68.63828467 106.15639052 103.90104122 106.22898628 139.16379631 C106.24025409 144.64353976 106.2513926 150.12328347 106.26245117 155.60302734 C106.26465486 156.69392 106.26685854 157.78481266 106.269129 158.90876268 C106.30447638 176.55938111 106.32935496 194.20999951 106.35034702 211.86064018 C106.37212946 229.97935489 106.40520309 248.09802377 106.44870156 266.21669948 C106.47517616 277.39184235 106.4929024 288.56692815 106.49934604 299.74210082 C106.50461275 307.41114539 106.52087274 315.08011822 106.54566566 322.7491243 C106.55963672 327.17002535 106.56886795 331.59079809 106.56500816 336.01172256 C106.56157476 340.06745824 106.57209482 344.12292083 106.59323552 348.17860065 C106.59846388 349.63778091 106.59878042 351.09698984 106.59339563 352.55616952 C106.52723182 372.53672713 110.77650991 390.43218625 124.94140625 404.99609375 C136.61419841 415.96144396 150.95209249 418.17632398 166.375 418.1875 C167.25671875 418.19974609 168.1384375 418.21199219 169.046875 418.22460938 C184.73427871 418.25911246 199.37669146 413.62461684 210.8125 402.625 C221.78064582 390.94363556 226.10053475 375.33400113 226.1386652 359.42270756 C226.14413964 358.13384744 226.14961409 356.84498732 226.15525442 355.51707083 C226.15633043 354.09919495 226.15731516 352.681319 226.15821838 351.26344299 C226.16278766 349.74772335 226.16778822 348.23200496 226.17318195 346.71628803 C226.18673084 342.55913019 226.19417198 338.40198051 226.20060861 334.24480641 C226.20862686 329.75885193 226.22231972 325.27291435 226.23532104 320.78697205 C226.25706359 313.0173807 226.2752162 305.24778763 226.29092598 297.47818184 C226.31364484 286.24465539 226.34178488 275.01114767 226.37124526 263.77763712 C226.41889644 245.55171752 226.46216733 227.32579026 226.50268555 209.09985352 C226.54205306 191.39574589 226.5834823 173.69164507 226.62768555 155.98754883 C226.63177196 154.35044685 226.63177196 154.35044685 226.63594092 152.68027211 C226.6496206 147.20499639 226.66334083 141.72972077 226.67708123 136.2544452 C226.79100714 90.83631015 226.89701848 45.41816144 227 0 C261.98 0 296.96 0 333 0 C333.06621581 47.28793599 333.12157771 94.57582803 333.15319599 141.86379717 C333.15694782 147.45468973 333.16083082 153.04558219 333.16479492 158.63647461 C333.16558185 159.74945602 333.16636878 160.86243742 333.16717956 162.00914554 C333.18021071 179.99778368 333.20385186 197.98639287 333.23145839 215.97501387 C333.25957647 234.45194624 333.27618976 252.9288635 333.28226548 271.40581638 C333.28636868 282.7943963 333.29929808 294.18289437 333.3237494 305.57144908 C333.33968574 313.39563268 333.34438261 321.21977436 333.34050413 329.04397299 C333.3385948 333.54879835 333.34138794 338.05348132 333.35761642 342.55828094 C333.43689408 365.73561923 332.66035341 387.6168451 326 410 C325.78859375 410.85078125 325.5771875 411.7015625 325.359375 412.578125 C320.86645907 429.97377385 309.60336363 446.66682169 298 460 C297.24074219 460.90492188 296.48148438 461.80984375 295.69921875 462.7421875 C280.07263498 480.7984365 259.11338238 492.65885777 237 501 C236.35498535 501.24975586 235.7099707 501.49951172 235.04541016 501.75683594 C200.97854045 514.80449228 162.52644725 513.76245808 127 509 C126.19062988 508.89316895 125.38125977 508.78633789 124.54736328 508.67626953 C86.6323161 503.40090656 51.08209146 482.24379092 28 451.875 C19.88249624 440.39406838 13.77510153 428.1974432 9 415 C8.62101562 413.97261719 8.24203125 412.94523437 7.8515625 411.88671875 C1.70092954 394.42909513 -0.31869384 376.39206151 -0.24050903 357.99769592 C-0.24138353 356.44207404 -0.24313898 354.88645246 -0.24568737 353.33083242 C-0.25011698 349.1004954 -0.24221836 344.87026144 -0.23213124 340.63993752 C-0.22343507 336.06142653 -0.22642124 331.48292062 -0.22793579 326.90440369 C-0.22898077 318.9865133 -0.22274483 311.06865606 -0.21146011 303.150774 C-0.19515531 291.7030725 -0.18999203 280.25538691 -0.18748413 268.80767506 C-0.18311482 250.23123068 -0.1698265 231.65480395 -0.15087891 213.07836914 C-0.1325003 195.04093514 -0.1183535 177.00350594 -0.10986328 158.96606445 C-0.10933783 157.85286896 -0.10881239 156.73967347 -0.10827102 155.59274478 C-0.1056608 150.00776167 -0.10313342 144.42277854 -0.10064721 138.83779538 C-0.07993851 92.55851458 -0.04308162 46.27926644 0 0 Z " fill="#F4F4F6" transform="translate(327,272)"/>
<path d="M0 0 C14.06588326 -0.02348194 28.13176343 -0.04098692 42.19766235 -0.05181217 C48.73041468 -0.05701016 55.26315374 -0.06405122 61.79589844 -0.07543945 C68.11124805 -0.08637866 74.42658499 -0.09230002 80.74194336 -0.09487724 C83.14022013 -0.09671174 85.53849627 -0.10029366 87.93676758 -0.10573006 C126.82296208 -0.19029733 162.98453974 3.67314405 192.75 31.3125 C200.54958206 39.57772875 206.34523081 49.26501128 210 60 C210.31839844 60.87269531 210.63679688 61.74539063 210.96484375 62.64453125 C216.52362022 80.55045177 213.93924925 102.76135804 205.75 119.5 C202.45559782 125.57602961 198.68967763 130.92637216 194 136 C193.43152344 136.62261719 192.86304688 137.24523437 192.27734375 137.88671875 C186.47666586 143.55990921 175.27324864 151 167 151 C167 151.66 167 152.32 167 153 C167.98226563 153.20302734 167.98226563 153.20302734 168.984375 153.41015625 C185.90198757 157.40061006 198.61190444 168.30587537 208 182.65625 C217.11855491 197.90133399 220.33260194 212.07354579 220.4375 229.625 C220.44765137 230.82769531 220.45780273 232.03039063 220.46826172 233.26953125 C220.23242586 257.63702172 210.7764 278.43090162 193.61914062 295.45849609 C175.97007757 312.26129828 151.96142517 320.9937449 128.01391602 323.66699219 C126.32825326 323.85670153 126.32825326 323.85670153 124.60853672 324.05024338 C111.99868732 325.35878522 99.44161804 325.39762407 86.77734375 325.328125 C84.28341283 325.32505641 81.78948018 325.32318867 79.29554749 325.32244873 C74.13519468 325.31790152 68.97500285 325.30367673 63.81469727 325.28125 C57.18812709 325.25259746 50.56174279 325.2419954 43.9351263 325.2375679 C38.8164191 325.23342904 33.69773693 325.22363053 28.57904243 325.21169281 C26.13208782 325.20599067 23.68513083 325.20123178 21.23817253 325.19742584 C17.85006237 325.19059924 14.46205296 325.17699412 11.07397461 325.16113281 C10.0617836 325.16001495 9.04959259 325.15889709 8.00672913 325.15774536 C7.09212921 325.15203522 6.1775293 325.14632507 5.23521423 325.14044189 C4.43660445 325.13746723 3.63799467 325.13449257 2.81518459 325.13142776 C1 325 1 325 0 324 C-0.09733247 322.27456433 -0.12371482 320.54510273 -0.12304783 318.8169241 C-0.12503888 317.68631288 -0.12702993 316.55570166 -0.12908131 315.3908295 C-0.12616847 314.1330751 -0.12325563 312.87532069 -0.12025452 311.57945251 C-0.1206901 310.24215393 -0.12156477 308.90485543 -0.12284368 307.56755739 C-0.12509115 303.87569603 -0.12106395 300.1838634 -0.11606562 296.49200571 C-0.11176489 292.51720768 -0.11320728 288.54241139 -0.1139679 284.56761169 C-0.11449337 277.67533417 -0.11134411 270.78306609 -0.10573006 263.89079094 C-0.09761824 253.92560128 -0.09500016 243.9604162 -0.09374207 233.99522359 C-0.09155104 217.82908853 -0.0848896 201.6629585 -0.07543945 185.49682617 C-0.06626663 169.78881862 -0.05918516 154.08081243 -0.05493164 138.37280273 C-0.05466892 137.40527889 -0.05440619 136.43775505 -0.05413551 135.4409123 C-0.05283051 130.58734386 -0.0515668 125.7337754 -0.05032361 120.88020694 C-0.03994943 80.58680113 -0.02232975 40.29340085 0 0 Z " fill="#F3F3F5" transform="translate(922,850)"/>
<path d="M0 0 C8.8488239 -0.02312589 17.69763747 -0.04091634 26.54648495 -0.05181217 C30.65494285 -0.05704046 34.76338014 -0.06413713 38.87182617 -0.07543945 C42.83346828 -0.08627025 46.79509052 -0.09227724 50.75674629 -0.09487724 C52.27148311 -0.09673114 53.78621879 -0.1003511 55.30094719 -0.10573006 C57.41541813 -0.11294307 59.52980594 -0.11399083 61.64428711 -0.11352539 C62.85007919 -0.115746 64.05587128 -0.11796661 65.29820251 -0.12025452 C68 0 68 0 69 1 C69.09600136 2.606892 69.12187889 4.21801769 69.12025452 5.82777405 C69.12231651 7.3948687 69.12231651 7.3948687 69.12442017 8.99362183 C69.11902725 10.72746628 69.11902725 10.72746628 69.11352539 12.49633789 C69.11367142 13.70592667 69.11381744 14.91551544 69.1139679 16.16175842 C69.11338893 19.48806351 69.10835973 22.81430719 69.10139394 26.1406014 C69.09515978 29.61329929 69.09455655 33.08599793 69.09336853 36.55870056 C69.0902554 43.13896193 69.08204225 49.71920676 69.07201904 56.29946083 C69.05976325 64.52320509 69.0542753 72.74695202 69.04882812 80.97070312 C69.03907683 95.64714831 69.01904657 110.3235574 69 125 C92.43 125 115.86 125 140 125 C140 83.75 140 42.5 140 0 C151.199375 -0.020625 162.39875 -0.04125 173.9375 -0.0625 C179.24896118 -0.07615601 179.24896118 -0.07615601 184.66772461 -0.09008789 C188.97961426 -0.09460449 188.97961426 -0.09460449 190.99586487 -0.09544373 C192.40915745 -0.09698297 193.8224487 -0.10050751 195.23573303 -0.10557556 C197.37194107 -0.11285548 199.5080686 -0.11390734 201.64428711 -0.11352539 C202.85007919 -0.115746 204.05587128 -0.11796661 205.29820251 -0.12025452 C208 0 208 0 209 1 C209.09822017 2.7192627 209.12555593 4.44259921 209.12584114 6.16466522 C209.12844889 7.29117634 209.13105664 8.41768746 209.13374341 9.57833529 C209.13151268 10.83151662 209.12928196 12.08469796 209.12698364 13.37585449 C209.12854363 14.69499076 209.13010362 16.01412704 209.13171089 17.37323713 C209.13590882 21.05176405 209.13381144 24.73026522 209.13072467 28.40879226 C209.12847266 32.36929616 209.13194918 36.32979546 209.13470459 40.29029846 C209.13916343 48.05564748 209.13818532 55.82098685 209.13529195 63.58633626 C209.13303836 69.89446729 209.1327252 76.20259561 209.13381577 82.51072693 C209.133969 83.4067444 209.13412223 84.30276186 209.13428011 85.22593138 C209.13459982 87.04587511 209.13492403 88.86581885 209.1352527 90.68576258 C209.13810782 107.77239882 209.13481996 124.8590297 209.12945233 141.94566506 C209.12498426 156.62344736 209.12576019 171.30122175 209.13037109 185.97900391 C209.13571628 203.00231637 209.13783313 220.02562413 209.13475883 237.04893732 C209.13444026 238.86238257 209.13412589 240.67582782 209.13381577 242.48927307 C209.13366149 243.38164499 209.13350721 244.2740169 209.13334826 245.19343039 C209.13248294 251.49780545 209.13394631 257.80217753 209.13629532 264.10655212 C209.13909291 271.78399001 209.13835594 279.46141767 209.13301457 287.13885438 C209.130377 291.05990689 209.12937344 294.98094231 209.13266373 298.90199471 C209.13616858 303.14272668 209.13199867 307.38341508 209.12698364 311.62414551 C209.12921436 312.87732685 209.13144509 314.13050818 209.13374341 315.42166471 C209.13113566 316.54817584 209.12852791 317.67468696 209.12584114 318.83533478 C209.12567879 319.81561032 209.12551644 320.79588586 209.12534916 321.80586672 C209 324 209 324 208 325 C185.56 325 163.12 325 140 325 C140 279.79 140 234.58 140 188 C116.57 188 93.14 188 69 188 C69.01160156 197.80589844 69.02320313 207.61179687 69.03515625 217.71484375 C69.0402627 223.90820339 69.0451177 230.10156151 69.04882812 236.29492188 C69.05477126 246.13631712 69.06177334 255.97770384 69.07543945 265.8190918 C69.08538586 272.98520446 69.09185332 280.15131023 69.09408849 287.3174296 C69.09539568 291.11416989 69.09848198 294.91089045 69.10573006 298.70762444 C69.1124896 302.27718902 69.1146171 305.84672563 69.11310768 309.41629601 C69.11351636 311.35914846 69.1189119 313.30199784 69.12442017 315.24484253 C69.1230455 316.39054214 69.12167084 317.53624176 69.12025452 318.71665955 C69.12117631 319.71864852 69.1220981 320.72063749 69.12304783 321.75298977 C69 324 69 324 68 325 C65.91924591 325.09943972 63.83508152 325.12799596 61.75195312 325.12939453 C61.09992416 325.13114685 60.4478952 325.13289917 59.77610779 325.13470459 C57.61112847 325.13912204 55.44623021 325.13618551 53.28125 325.1328125 C51.78291813 325.13348557 50.28458637 325.13445562 48.78625488 325.13571167 C45.64216067 325.1371885 42.49809483 325.13503458 39.35400391 325.13037109 C35.31513461 325.1246738 31.27633176 325.12795289 27.2374649 325.13394356 C24.1423492 325.13754958 21.04724935 325.13641039 17.95213318 325.13381577 C16.46251925 325.13314661 14.9729039 325.13397452 13.48329163 325.13629532 C11.40483765 325.13882253 9.32649269 325.13498033 7.24804688 325.12939453 C5.4705304 325.12820114 5.4705304 325.12820114 3.65710449 325.12698364 C1 325 1 325 0 324 C-0.09733247 322.27456433 -0.12371482 320.54510273 -0.12304783 318.8169241 C-0.12503888 317.68631288 -0.12702993 316.55570166 -0.12908131 315.3908295 C-0.12616847 314.1330751 -0.12325563 312.87532069 -0.12025452 311.57945251 C-0.1206901 310.24215393 -0.12156477 308.90485543 -0.12284368 307.56755739 C-0.12509115 303.87569603 -0.12106395 300.1838634 -0.11606562 296.49200571 C-0.11176489 292.51720768 -0.11320728 288.54241139 -0.1139679 284.56761169 C-0.11449337 277.67533417 -0.11134411 270.78306609 -0.10573006 263.89079094 C-0.09761824 253.92560128 -0.09500016 243.9604162 -0.09374207 233.99522359 C-0.09155104 217.82908853 -0.0848896 201.6629585 -0.07543945 185.49682617 C-0.06626663 169.78881862 -0.05918516 154.08081243 -0.05493164 138.37280273 C-0.05466892 137.40527889 -0.05440619 136.43775505 -0.05413551 135.4409123 C-0.05283051 130.58734386 -0.0515668 125.7337754 -0.05032361 120.88020694 C-0.03994943 80.58680113 -0.02232975 40.29340085 0 0 Z " fill="#F3F3F5" transform="translate(315,850)"/>
<path d="M0 0 C1.80868813 0.00333092 1.80868813 0.00333092 3.65391541 0.00672913 C4.64899864 0.00651009 4.64899864 0.00651009 5.66418457 0.00628662 C7.86644207 0.00698571 10.06861596 0.01477787 12.27085876 0.02259827 C13.79400588 0.02446246 15.31715359 0.02588636 16.84030151 0.02688599 C20.85657903 0.03071105 24.87282059 0.04054124 28.88908386 0.05158997 C32.98443617 0.06180433 37.07979427 0.06638366 41.17515564 0.07142639 C49.21618779 0.08216352 57.25719069 0.0992398 65.29820251 0.12025452 C65.30059087 1.33854667 65.30297922 2.55683882 65.30543995 3.81204891 C65.36283078 32.74809983 65.43558334 61.68408497 65.5271888 90.62004688 C65.53845662 94.18351093 65.54959513 97.74697536 65.56065369 101.31044006 C65.56285737 102.01984559 65.56506105 102.72925111 65.56733152 103.46015377 C65.60267977 114.93861328 65.62755784 126.41707273 65.64854953 137.89556646 C65.67033131 149.6782927 65.70340425 161.46094846 65.74690408 173.24361473 C65.77100742 179.85976596 65.78956708 186.47585859 65.79581642 193.09205437 C65.80186464 199.32104129 65.82185551 205.54982875 65.85247803 211.77874184 C65.86126237 214.0631662 65.86498002 216.34761662 65.86321068 218.63205719 C65.86155537 221.75578909 65.87827984 224.87891484 65.8994751 228.00256348 C65.89462752 228.9023936 65.88977995 229.80222372 65.88478547 230.72932142 C65.99371853 240.48582421 69.23461033 250.2665194 75.54820251 257.80775452 C83.94141936 264.86568686 93.94493782 268.96883754 105.14976501 268.40150452 C116.09240924 266.96901291 126.40841923 264.27368779 133.67320251 255.43275452 C141.47464252 243.18399641 140.87275161 231.00597534 140.82823181 216.94789124 C140.83533571 214.59323557 140.84420178 212.23858467 140.85469055 209.88394165 C140.87823032 203.51483686 140.87757803 197.14593742 140.87277579 190.77679968 C140.87224181 184.78694395 140.89064519 178.79715957 140.90916333 172.80733944 C140.94529727 160.94940904 140.96451944 149.09151648 140.97227478 137.23353577 C140.97985256 125.72342695 140.99297969 114.21335279 141.01524353 102.70326233 C141.01661423 101.99282575 141.01798493 101.28238917 141.01939716 100.5504242 C141.03451417 92.79979273 141.05123906 85.04916545 141.06921864 77.29854012 C141.07157659 76.27806187 141.07157659 76.27806187 141.07398218 75.2369679 C141.08690968 69.64621931 141.08690968 69.64621931 141.09299979 67.0806426 C141.11336464 58.46540693 141.12651223 49.85019363 141.13205945 41.23493457 C141.13587779 36.31064427 141.1434845 31.38636441 141.15186691 26.46208 C141.15483906 24.16943584 141.15606039 21.87678869 141.15545464 19.58414268 C141.1547928 16.46935433 141.16010026 13.3546325 141.16690063 10.23985291 C141.16427508 8.86057218 141.16427508 8.86057218 141.16159648 7.4534272 C141.18419426 1.23426277 141.18419426 1.23426277 142.29820251 0.12025452 C144.41501569 0.02603711 146.5350101 0.00282691 148.65391541 0.00672913 C149.31730423 0.0065831 149.98069305 0.00643707 150.66418457 0.00628662 C152.86644207 0.00698571 155.06861596 0.01477787 157.27085876 0.02259827 C158.79400588 0.02446246 160.31715359 0.02588636 161.84030151 0.02688599 C165.85657903 0.03071105 169.87282059 0.04054124 173.88908386 0.05158997 C177.98443617 0.06180433 182.07979427 0.06638366 186.17515564 0.07142639 C194.21618779 0.08216352 202.25719069 0.0992398 210.29820251 0.12025452 C210.34389427 30.7113134 210.37925616 61.30236443 210.40033317 91.89344931 C210.40283438 95.51055501 210.40542305 99.12766064 210.4080658 102.74476624 C210.40859042 103.46482266 210.40911504 104.18487909 210.40965556 104.92675541 C210.41834213 116.5635222 210.43410241 128.20026909 210.45250811 139.83702411 C210.4712559 151.79036164 210.48232953 163.74368881 210.4863795 175.69704044 C210.48886996 182.40558771 210.495077 189.11408719 210.50966263 195.82262039 C210.52329505 202.14429616 210.52741373 208.46590859 210.52441788 214.78759766 C210.52496551 217.100578 210.52890905 219.41356059 210.53661346 221.72652817 C210.6335296 252.33830744 205.51411851 278.26658085 183.59117126 300.91712952 C161.21001231 323.02794783 130.05244638 329.39103556 99.60044861 329.50965881 C70.67919181 329.19013853 43.38928007 320.23883282 22.29820251 300.12025452 C12.40244399 289.72185429 6.00002771 278.02766231 1.42320251 264.55775452 C1.13686951 263.72002502 0.8505365 262.88229553 0.55552673 262.0191803 C-4.15323662 247.36057064 -3.98498073 232.85790005 -3.94471741 217.62904358 C-3.94579175 215.26424609 -3.94773269 212.89944886 -3.95046997 210.53465271 C-3.95529394 204.14710305 -3.94769563 197.75962385 -3.93751693 191.37208271 C-3.92960057 185.36217196 -3.93035521 179.3522665 -3.93079225 173.34235212 C-3.93129139 161.44669275 -3.92216732 149.5510604 -3.90760803 137.65541077 C-3.89348535 126.11048389 -3.88643899 114.56558077 -3.88710022 103.02064514 C-3.88714018 102.30774701 -3.88718013 101.59484888 -3.8872213 100.86034778 C-3.88726165 100.14867897 -3.88730201 99.43701017 -3.88734359 98.70377564 C-3.88799758 86.21338383 -3.88288796 73.7230015 -3.87455177 61.23261261 C-3.87101393 55.91362635 -3.86918783 50.59464477 -3.86865807 45.27565765 C-3.86765754 39.02772554 -3.8615849 32.77981853 -3.85149193 26.53189468 C-3.84855893 24.23279855 -3.84734316 21.93369953 -3.84791946 19.63460159 C-3.84840636 16.5111601 -3.8427924 13.38779011 -3.83551025 10.26435852 C-3.83705886 9.34231133 -3.83860746 8.42026413 -3.84020299 7.47027612 C-3.81184063 0.16966151 -3.81184063 0.16966151 0 0 Z " fill="#F3F3F5" transform="translate(619.7017974853516,849.8797454833984)"/>
<path d="M0 0 C8.04375 -0.061875 16.0875 -0.12375 24.375 -0.1875 C26.89431152 -0.21481201 29.41362305 -0.24212402 32.00927734 -0.27026367 C34.03482587 -0.27903604 36.06037974 -0.2866782 38.0859375 -0.29296875 C39.11436768 -0.30831665 40.14279785 -0.32366455 41.20239258 -0.33947754 C53.74396944 -0.34396201 64.93582453 3.5102075 74.1796875 12.1015625 C82.19110612 20.45681883 84.116831 30.92565646 84.3125 42.25 C84.033494 52.75922595 82.01481637 62.49319648 74.73046875 70.4921875 C63.6163127 80.90637366 53.13284674 83.3433076 38.18359375 83.1953125 C37.20974731 83.19329834 36.23590088 83.19128418 35.23254395 83.18920898 C31.63414727 83.17883452 28.03581833 83.15091275 24.4375 83.125 C16.373125 83.08375 8.30875 83.0425 0 83 C0 55.61 0 28.22 0 0 Z " fill="#1D1D1F" transform="translate(989,1035)"/>
<path d="M0 0 C7.54875 -0.061875 15.0975 -0.12375 22.875 -0.1875 C25.23769043 -0.21481201 27.60038086 -0.24212402 30.03466797 -0.27026367 C31.9371693 -0.27903715 33.83967633 -0.28667904 35.7421875 -0.29296875 C36.70584229 -0.30831665 37.66949707 -0.32366455 38.66235352 -0.33947754 C49.10864311 -0.34345153 58.7589092 2.38780152 67 9 C76.14363159 19.39433166 76.79378323 29.38241203 76.19091797 42.64794922 C75.48384221 51.35890558 71.54809409 58.32167173 65 64 C56.00176151 70.40286701 48.6163825 72.30408639 37.6953125 72.1953125 C36.73810303 72.19329834 35.78089355 72.19128418 34.79467773 72.18920898 C31.23806935 72.17878896 27.68152958 72.1508665 24.125 72.125 C16.16375 72.08375 8.2025 72.0425 0 72 C0 48.24 0 24.48 0 0 Z " fill="#1D1D1F" transform="translate(989,907)"/>
</svg>
