<svg width="909" height="485" viewBox="0 0 909 485" fill="none" xmlns="http://www.w3.org/2000/svg">
<rect width="908.085" height="484.062" fill="white"/>
<mask id="mask0_2209_11796" style="mask-type:alpha" maskUnits="userSpaceOnUse" x="0" y="0" width="909" height="485">
<path d="M0 0.9375H908.085V484.999H0V0.9375Z" fill="white"/>
</mask>
<g mask="url(#mask0_2209_11796)">
<rect x="697.5" y="184.5" width="62" height="20" stroke="#C5EBF5" stroke-width="3"/>
<rect x="624.5" y="184.5" width="62" height="20" fill="white" stroke="#C5EBF5" stroke-width="3"/>
<path d="M624.5 125.5H759.5V171.5H624.5V125.5Z" fill="white" stroke="#C5EBF5" stroke-width="3"/>
<rect x="121.817" y="343.855" width="37.6516" height="12.6451" fill="white" stroke="#C5EBF5" stroke-width="3"/>
<rect x="169.584" y="343.855" width="38.6679" height="12.6451" fill="white" stroke="#C5EBF5" stroke-width="3"/>
<rect x="218.366" y="343.855" width="37.6516" height="12.6451" fill="white" stroke="#C5EBF5" stroke-width="3"/>
<path d="M121.5 280.5H256.5V327.5H121.5V280.5Z" fill="white" stroke="#C5EBF5" stroke-width="3"/>
</g>
<path d="M445.446 361.634C375.635 361.634 318.842 305.024 318.842 235.442C318.842 165.86 375.635 109.25 445.446 109.25C515.256 109.25 572.048 165.859 572.048 235.442C572.048 305.025 515.255 361.634 445.446 361.634ZM445.446 110.661C376.414 110.661 320.253 166.638 320.253 235.442C320.253 304.246 376.418 360.223 445.446 360.223C514.473 360.223 570.637 304.246 570.637 235.442C570.637 166.638 514.476 110.661 445.446 110.661Z" fill="#FBAD40"/>
<path d="M445.446 373.372C369.408 373.372 307.548 311.852 307.548 236.236C307.548 190.636 334.107 156.938 356.387 136.698C384.407 111.187 413.54 98.7852 445.446 98.7852C488.77 98.7852 521.56 122.482 541.437 142.36C569.245 170.131 583.349 201.715 583.349 236.236C583.349 268.503 569.479 299.404 542.126 328.079C513.453 358.132 480.929 373.372 445.446 373.372ZM445.446 100.196C413.907 100.196 385.086 112.474 357.336 137.743C335.267 157.79 308.959 191.152 308.959 236.236C308.959 311.074 370.187 371.96 445.446 371.96C480.527 371.96 512.709 356.869 541.098 327.105C568.193 298.701 581.933 268.127 581.933 236.236C581.933 202.103 567.972 170.855 540.443 143.358C520.75 123.667 488.287 100.196 445.446 100.196Z" fill="#FBA63F"/>
<path d="M445.446 385.112C425.883 385.189 406.496 381.411 388.395 373.991C370.293 366.572 353.831 355.658 339.95 341.873C326.056 328.184 315.034 311.861 307.53 293.858C300.026 275.855 296.191 256.536 296.25 237.032C296.25 200.822 314.393 166.472 351.718 132.03C376.226 109.331 404.545 88.3242 445.443 88.3242C480.213 88.3242 513.472 104.485 547.122 137.729C579.537 169.687 594.634 201.241 594.634 237.032C594.634 278.144 570.665 308.908 547.218 333.579C513.355 369.219 481.967 385.112 445.446 385.112ZM445.446 89.7354C405.034 89.7354 376.977 110.562 352.678 133.066C315.659 167.23 297.664 201.237 297.664 237.032C297.606 256.349 301.404 275.484 308.836 293.314C316.268 311.145 327.184 327.313 340.945 340.871C354.695 354.526 371.002 365.337 388.933 372.686C406.864 380.035 426.067 383.778 445.446 383.7C481.548 383.7 512.618 367.943 546.205 332.607C569.46 308.138 593.233 277.648 593.233 237.032C593.233 201.643 578.274 170.408 546.141 138.734C512.761 105.765 479.825 89.7354 445.446 89.7354Z" fill="#FC9F3D"/>
<path d="M445.446 396.851C402.968 397.033 362.155 380.35 331.967 350.467C317.02 335.771 305.161 318.236 297.088 298.891C289.015 279.547 284.891 258.784 284.959 237.822C284.959 191.676 316.348 156.086 347.051 127.354C375.874 100.273 403.173 77.8574 445.443 77.8574C490.263 77.8574 524.869 105.778 552.812 133.09C580.4 159.995 605.93 191.304 605.93 237.822C605.93 279.122 581.65 308.111 552.32 339.073C525.847 367.03 493.572 396.851 445.446 396.851ZM445.446 79.2743C403.693 79.2743 376.62 101.518 348.02 128.384C317.538 156.911 286.37 192.221 286.37 237.824C286.303 258.598 290.39 279.177 298.391 298.349C306.392 317.521 318.145 334.9 332.959 349.465C362.884 379.085 403.341 395.619 445.446 395.436C493.012 395.436 525.025 365.842 551.298 338.103C580.417 307.366 604.522 278.604 604.522 237.824C604.522 191.828 579.196 160.791 551.829 134.101C524.09 106.992 489.759 79.2743 445.446 79.2743Z" fill="#FC983C"/>
<path d="M445.446 408.59C400.001 408.8 356.325 390.994 323.981 359.071C307.98 343.368 295.284 324.621 286.642 303.935C278.001 283.248 273.588 261.041 273.664 238.622C273.664 187.785 313.385 150.159 342.389 122.685L344.468 120.71C374.526 92.1048 400.477 67.4004 445.447 67.4004C491.593 67.4004 526.599 97.5661 558.505 128.463C589.451 158.36 617.228 189.285 617.228 238.624C617.228 281.597 589.297 311.007 562.287 339.448C560.664 341.157 559.044 342.867 557.426 344.576C523.166 380.845 493.17 408.59 445.446 408.59ZM445.446 68.8102C401.04 68.8102 375.274 93.334 345.438 121.73L343.358 123.706C307.373 157.792 275.075 192.229 275.075 238.618C274.999 260.85 279.375 282.872 287.945 303.386C296.515 323.899 309.104 342.49 324.972 358.062C357.053 389.723 400.373 407.382 445.446 407.171C492.605 407.171 522.377 379.619 556.398 343.6C558.015 341.887 559.637 340.176 561.263 338.469C588.075 310.228 615.815 281.033 615.815 238.615C615.815 189.829 588.242 159.148 557.523 129.469C525.825 98.7798 491.06 68.8102 445.446 68.8102Z" fill="#FD913B"/>
<path d="M445.445 420.328C397.033 420.567 350.494 401.635 315.995 367.669C298.94 350.96 285.407 331.001 276.197 308.973C266.986 286.944 262.284 263.293 262.369 239.417C262.369 189.935 299.955 154.064 333.116 122.415L337.722 118.015C340.622 115.228 343.472 112.463 346.272 109.718C375.323 81.3969 400.413 56.9395 445.445 56.9395C494.545 56.9395 531.246 92.1897 563.627 123.29L564.192 123.833C601.858 159.93 628.52 189.351 628.52 239.42C628.52 281.949 600.752 310.567 573.9 338.24C570.149 342.106 566.271 346.101 562.524 350.077L559.24 353.566C526.95 387.897 496.452 420.328 445.445 420.328ZM445.445 58.3478C400.993 58.3478 376.088 82.6204 347.259 110.729C344.447 113.468 341.594 116.237 338.698 119.034L334.089 123.435C301.134 154.889 263.781 190.539 263.781 239.417C263.696 263.106 268.36 286.572 277.498 308.427C286.636 330.283 300.062 350.086 316.983 366.665C351.219 400.369 397.402 419.154 445.444 418.917C495.838 418.917 526.136 386.702 558.213 352.591L561.497 349.101C565.252 345.117 569.132 341.118 572.886 337.247C600.77 308.509 627.109 281.363 627.109 239.409C627.109 189.898 600.626 160.693 563.214 124.839L562.649 124.296C530.461 93.3893 493.978 58.3478 445.445 58.3478Z" fill="#FD8A3A"/>
<path d="M445.446 432.069C394.065 432.335 344.663 412.278 308.009 376.271C289.9 358.554 275.531 337.384 265.751 314.013C255.971 290.643 250.981 265.548 251.075 240.214C251.075 191.115 288.645 155.506 321.793 124.09C325.603 120.477 329.378 116.9 333.057 113.344C337.707 108.828 342.205 104.312 346.555 99.9371C375.069 71.2532 399.695 46.4824 445.446 46.4824C494.16 46.4824 530.682 81.5662 562.905 112.519C565.245 114.768 567.571 116.997 569.884 119.206L571.312 120.563C608.069 155.533 639.817 185.734 639.817 240.22C639.817 283.03 612.824 310.03 584.245 338.616C578.742 344.126 573.039 349.825 567.627 355.581C564.571 358.83 561.545 362.079 558.549 365.328C526.734 399.648 496.682 432.069 445.446 432.069ZM445.446 47.888C400.288 47.888 375.848 72.4668 347.555 100.926C343.202 105.301 338.699 109.837 334.037 114.358C330.356 117.919 326.579 121.497 322.763 125.114C289.822 156.334 252.486 191.723 252.486 240.214C252.393 265.361 257.346 290.271 267.053 313.468C276.76 336.666 291.024 357.68 308.999 375.266C345.389 411.013 394.436 430.925 445.446 430.66C496.065 430.66 525.914 398.457 557.515 364.364C560.52 361.121 563.549 357.87 566.6 354.61C572.026 348.838 577.731 343.133 583.252 337.614C611.617 309.249 638.41 282.436 638.41 240.216C638.41 186.335 606.866 156.327 570.342 121.582L568.914 120.223C566.598 118.016 564.271 115.786 561.933 113.533C529.897 82.7629 493.593 47.888 445.446 47.888Z" fill="#FD8238"/>
<path d="M330.434 155.471L327 155.962V159.431V240.289C327 288.992 350.211 325.138 373.682 349.214C397.097 373.234 420.994 385.487 423.178 386.579C423.181 386.581 423.184 386.583 423.187 386.584L435.048 392.571L436.842 393.476L438.639 392.578L450.626 386.584L448.838 383.006L450.626 386.584C452.752 385.521 476.683 373.268 500.132 349.214C523.603 325.138 546.814 288.992 546.814 240.289V159.431V155.962L543.38 155.471L520.423 152.192L520.418 152.191C484.219 147.065 461.627 124.442 459.813 122.573L439.826 100.327L436.841 97.0046L433.866 100.336L414.146 122.423C412.317 124.268 389.647 147.058 353.396 152.191L353.391 152.192L330.434 155.471Z" fill="white" stroke="white" stroke-width="8" stroke-miterlimit="10"/>
<path d="M435.066 362.586L436.751 363.419L438.467 362.653L441.793 361.169L441.864 361.137L441.934 361.103C443.742 360.21 463.884 350.016 483.626 330.132C503.385 310.231 522.998 280.346 522.998 240.204V180.329V176.863L519.567 176.37L513.668 175.522L513.654 175.52C492.061 172.495 474.912 164.131 463.124 156.47C457.234 152.642 452.701 149 449.644 146.314C448.116 144.972 446.961 143.871 446.192 143.109C445.808 142.728 445.523 142.434 445.339 142.241C445.308 142.207 445.28 142.177 445.255 142.151L445.243 142.133L445.042 141.914L439.893 136.297L436.914 133.046L433.968 136.328L429.036 141.823C429.012 141.846 428.991 141.868 428.974 141.885C428.929 141.929 428.87 141.989 428.807 142.052C428.774 142.085 428.741 142.119 428.708 142.152C428.497 142.364 428.194 142.666 427.8 143.049C427.01 143.816 425.839 144.919 424.301 146.262C421.225 148.949 416.682 152.596 410.79 156.432C398.998 164.109 381.876 172.496 360.341 175.521L360.329 175.522L354.429 176.37L350.998 176.863V180.329V240.204C350.998 280.346 370.612 310.231 390.371 330.132C410.113 350.016 430.255 360.21 432.063 361.103L435.066 362.586Z" fill="white" stroke="#E2F5FA" stroke-width="8"/>
<path d="M445.446 443.809C390.375 443.809 338.73 422.876 300.022 384.87C280.86 366.146 265.653 343.764 255.305 319.052C244.956 294.34 239.677 267.801 239.779 241.01C239.779 191.662 276.305 157.545 311.628 124.552C317.474 119.091 322.996 113.933 328.391 108.671C334.529 102.67 340.323 96.6415 345.928 90.8104C374.189 61.4067 398.595 36.0137 445.446 36.0137C494.414 36.0137 529.49 70.0052 563.422 102.878C567.42 106.75 571.553 110.753 575.579 114.567C577.769 116.636 579.947 118.689 582.113 120.725C619.14 155.548 651.121 185.622 651.121 241.01C651.121 284.516 623.329 311.428 593.905 339.916C586.849 346.751 579.549 353.817 572.737 361.073C568.063 366.053 563.444 371.14 558.977 376.06C527.329 410.9 497.44 443.809 445.446 443.809ZM445.446 37.4249C399.197 37.4249 374.983 62.6176 346.944 91.7884C341.333 97.6265 335.531 103.664 329.378 109.681C323.971 114.955 318.444 120.117 312.584 125.582C277.482 158.371 241.178 192.276 241.178 241.01C241.076 267.613 246.319 293.966 256.595 318.505C266.871 343.044 281.97 365.27 300.999 383.862C339.44 421.609 390.734 442.397 445.433 442.397C496.801 442.397 526.488 409.714 557.905 375.11C562.376 370.188 567.001 365.091 571.682 360.108C578.515 352.827 585.825 345.749 592.895 338.903C622.098 310.626 649.681 283.917 649.681 241.01C649.681 186.231 617.909 156.351 581.122 121.752C578.959 119.716 576.779 117.663 574.584 115.592C570.553 111.774 566.416 107.766 562.417 103.891C528.709 71.2146 493.836 37.4249 445.446 37.4249Z" fill="#FE7B37"/>
<path d="M445.446 455.547C387.338 455.547 332.856 433.501 292.037 393.468C271.821 373.737 255.777 350.144 244.859 324.09C233.942 298.036 228.374 270.053 228.485 241.804C228.485 191.826 265.934 157.468 302.15 124.241C309.724 117.293 316.877 110.729 323.724 103.998C331.181 96.6596 338.058 89.2536 344.71 82.096C372.904 51.7553 397.253 25.5508 445.444 25.5508C495.036 25.5508 530.455 60.3029 564.707 93.9106C570.146 99.2477 575.771 104.767 581.262 109.936C584.943 113.398 588.596 116.8 592.22 120.14C629.882 155.035 662.409 185.171 662.409 241.804C662.409 286.267 633.613 313.253 603.127 341.823C594.646 349.77 585.875 357.989 577.834 366.572C571.755 373.064 565.839 379.73 560.111 386.179C528.445 421.853 498.538 455.547 445.446 455.547ZM445.446 26.9662C397.87 26.9662 373.714 52.9619 345.744 83.0613C339.084 90.2302 332.197 97.6432 324.718 105.008C317.854 111.757 310.69 118.328 303.107 125.286C267.121 158.308 229.899 192.45 229.899 241.808C229.789 269.869 235.32 297.666 246.164 323.547C257.009 349.428 272.945 372.865 293.026 392.465C333.583 432.237 387.718 454.134 445.448 454.134C497.907 454.134 527.608 420.67 559.05 385.241C564.779 378.785 570.705 372.11 576.797 365.605C584.869 356.989 593.658 348.754 602.155 340.791C632.415 312.437 660.997 285.656 660.997 241.804C660.997 185.788 628.681 155.845 591.267 121.175C587.647 117.824 583.991 114.42 580.299 110.963C574.796 105.784 569.169 100.261 563.725 94.9182C529.67 61.5095 494.461 26.962 445.446 26.962V26.9662Z" fill="#FE7436"/>
<path d="M445.446 467.286C384.303 467.286 326.985 444.124 284.05 402.068C262.781 381.33 245.901 356.525 234.415 329.13C222.929 301.734 217.072 272.308 217.192 242.602C217.192 191.74 255.79 157.003 293.114 123.411C302.279 115.163 310.936 107.372 319.059 99.3279C327.723 90.7436 335.535 82.0548 343.091 73.6526C371.347 42.2294 395.751 15.0879 445.445 15.0879C495.922 15.0879 531.817 50.8194 566.525 85.3754C573.536 92.3537 580.159 98.9454 586.948 105.303C591.972 110.002 597.013 114.598 601.889 119.041C640.424 154.168 673.699 184.492 673.699 242.6C673.699 288.191 643.766 315.365 612.077 344.134C602.251 353.054 592.092 362.278 582.931 372.076C575.592 379.927 568.545 388.05 561.734 395.906C529.912 432.612 499.852 467.286 445.446 467.286ZM445.446 16.5005C396.382 16.5005 372.172 43.4219 344.142 74.5938C336.572 83.0102 328.746 91.7145 320.054 100.328C311.907 108.396 303.238 116.197 294.06 124.46C256.962 157.846 218.603 192.368 218.603 242.602C218.483 272.121 224.303 301.361 235.717 328.584C247.13 355.806 263.903 380.455 285.038 401.061C327.707 442.86 384.669 465.878 445.446 465.878C499.213 465.878 529.062 431.445 560.669 394.981C567.488 387.115 574.538 378.98 581.902 371.11C591.103 361.274 601.283 352.031 611.129 343.092C642.582 314.537 672.288 287.567 672.288 242.6C672.288 185.116 639.225 154.98 600.942 120.087C596.063 115.638 591.018 111.041 585.983 106.334C579.178 99.9615 572.239 93.0551 565.53 86.3759C531.027 52.0231 495.34 16.5005 445.446 16.5005Z" fill="#FF6D34"/>
<path d="M445.446 479.026C381.266 479.026 321.111 454.754 276.064 410.666C253.74 388.922 236.023 362.905 223.968 334.167C211.913 305.43 205.767 274.559 205.896 243.396C205.896 191.474 245.795 156.26 284.379 122.205C295.044 112.792 305.123 103.902 314.396 94.6528C324.184 84.8958 332.826 74.9793 341.183 65.3889C369.595 32.7902 394.133 4.62695 445.446 4.62695C496.982 4.62695 533.456 41.4874 568.731 77.1357C576.927 85.4194 584.669 93.2431 592.643 100.673C598.903 106.504 605.186 112.133 611.26 117.578C650.825 153.033 684.995 183.653 684.995 243.396C684.995 290.239 653.834 317.681 620.845 346.736C609.729 356.524 598.236 366.647 588.033 377.571C579.523 386.68 571.487 396.171 563.715 405.348C531.629 443.238 501.322 479.026 445.446 479.026ZM445.446 6.03815C394.775 6.03815 370.433 33.9714 342.248 66.316C333.882 75.9248 325.216 85.8667 315.395 95.652C306.081 104.931 295.997 113.837 285.316 123.263C246.966 157.111 207.31 192.11 207.31 243.396C207.182 274.371 213.291 305.056 225.273 333.62C237.255 362.185 254.866 388.045 277.054 409.659C321.833 453.484 381.635 477.615 445.446 477.615C500.667 477.615 530.769 442.068 562.638 404.436C570.421 395.246 578.468 385.742 587.001 376.607C597.251 365.634 608.772 355.489 619.912 345.677C652.652 316.839 683.584 289.601 683.584 243.396C683.584 184.284 649.632 153.858 610.319 118.628C604.239 113.18 597.952 107.547 591.682 101.705C583.686 94.2563 575.573 86.0572 567.727 78.1277C532.656 42.6841 496.394 6.03815 445.446 6.03815Z" fill="#FF6633"/>
<mask id="path-23-outside-1_2209_11796" maskUnits="userSpaceOnUse" x="238" y="121" width="28" height="151" fill="black">
<rect fill="white" x="238" y="121" width="28" height="151"/>
<path fill-rule="evenodd" clip-rule="evenodd" d="M250.029 125C245.61 125 242 128.582 242 133V188.082H244.294V246.575C244.294 248.451 245.195 250.117 246.588 251.163V254.604H247.735V257.471L252.323 262.059L252.323 254.604H253.47V251.163C254.862 250.117 255.763 248.451 255.763 246.575V188.082H258.057V184.139C258.095 185.056 258.85 185.787 259.776 185.787C260.726 185.787 261.496 185.017 261.496 184.067V139.382C261.497 139.367 261.497 139.352 261.497 139.336C261.497 138.386 260.727 137.616 259.777 137.616H259.776H258.057V133C258.057 128.582 254.447 125 250.029 125Z"/>
</mask>
<path fill-rule="evenodd" clip-rule="evenodd" d="M250.029 125C245.61 125 242 128.582 242 133V188.082H244.294V246.575C244.294 248.451 245.195 250.117 246.588 251.163V254.604H247.735V257.471L252.323 262.059L252.323 254.604H253.47V251.163C254.862 250.117 255.763 248.451 255.763 246.575V188.082H258.057V184.139C258.095 185.056 258.85 185.787 259.776 185.787C260.726 185.787 261.496 185.017 261.496 184.067V139.382C261.497 139.367 261.497 139.352 261.497 139.336C261.497 138.386 260.727 137.616 259.777 137.616H259.776H258.057V133C258.057 128.582 254.447 125 250.029 125Z" fill="#0055DC"/>
<path d="M242 188.082H238V192.082H242V188.082ZM244.294 188.082H248.294V184.082H244.294V188.082ZM246.588 251.163H250.588V249.165L248.99 247.965L246.588 251.163ZM246.588 254.604H242.588V258.604H246.588V254.604ZM247.735 254.604H251.735V250.604H247.735V254.604ZM247.735 257.471H243.735V259.128L244.907 260.299L247.735 257.471ZM252.323 262.059L249.495 264.887L256.323 271.716L256.323 262.059H252.323ZM252.323 254.604V250.604H248.323L248.323 254.604H252.323ZM253.47 254.604V258.604H257.47V254.604H253.47ZM253.47 251.163L251.067 247.965L249.47 249.165V251.163H253.47ZM255.763 188.082V184.082H251.763V188.082H255.763ZM258.057 188.082V192.082H262.057V188.082H258.057ZM258.057 184.139L262.054 183.974L254.057 184.139H258.057ZM261.496 139.382L257.498 139.278L257.496 139.33V139.382H261.496ZM258.057 137.616H254.057V141.616H258.057V137.616ZM246 133C246 130.809 247.801 129 250.029 129V121C243.42 121 238 126.354 238 133H246ZM246 188.082V133H238V188.082H246ZM244.294 184.082H242V192.082H244.294V184.082ZM248.294 246.575V188.082H240.294V246.575H248.294ZM248.99 247.965C248.56 247.642 248.294 247.14 248.294 246.575H240.294C240.294 249.762 241.83 252.592 244.186 254.362L248.99 247.965ZM250.588 254.604V251.163H242.588V254.604H250.588ZM247.735 250.604H246.588V258.604H247.735V250.604ZM251.735 257.471V254.604H243.735V257.471H251.735ZM255.152 259.23L250.564 254.642L244.907 260.299L249.495 264.887L255.152 259.23ZM248.323 254.604L248.323 262.059H256.323L256.323 254.604H248.323ZM253.47 250.604H252.323V258.604H253.47V250.604ZM249.47 251.163V254.604H257.47V251.163H249.47ZM251.763 246.575C251.763 247.14 251.498 247.642 251.067 247.965L255.872 254.361C258.227 252.592 259.763 249.762 259.763 246.575H251.763ZM251.763 188.082V246.575H259.763V188.082H251.763ZM258.057 184.082H255.763V192.082H258.057V184.082ZM254.057 184.139V188.082H262.057V184.139H254.057ZM259.776 181.787C261.004 181.787 262.004 182.757 262.054 183.974L254.061 184.304C254.186 187.355 256.696 189.787 259.776 189.787V181.787ZM257.496 184.067C257.496 182.808 258.517 181.787 259.776 181.787V189.787C262.935 189.787 265.496 187.226 265.496 184.067H257.496ZM257.496 139.382V184.067H265.496V139.382H257.496ZM257.497 139.336C257.497 139.317 257.497 139.298 257.498 139.278L265.495 139.486C265.496 139.436 265.497 139.386 265.497 139.336H257.497ZM259.777 141.616C258.518 141.616 257.497 140.595 257.497 139.336H265.497C265.497 136.177 262.936 133.616 259.777 133.616V141.616ZM259.776 141.616H259.777V133.616H259.776V141.616ZM258.057 141.616H259.776V133.616H258.057V141.616ZM254.057 133V137.616H262.057V133H254.057ZM250.029 129C252.256 129 254.057 130.809 254.057 133H262.057C262.057 126.354 256.637 121 250.029 121V129Z" fill="white" mask="url(#path-23-outside-1_2209_11796)"/>
<rect x="244.294" y="136.469" width="11.4694" height="115.841" rx="5.73469" fill="#6ECCE5"/>
<path d="M242.5 133C242.5 128.86 245.884 125.5 250.029 125.5C254.173 125.5 257.557 128.86 257.557 133V187.582H242.5V133Z" fill="#0055DC" stroke="white"/>
<path d="M247.736 257.47V251.736V248.295H252.323V262.058L247.736 257.47Z" fill="#0055DC"/>
<rect x="246.588" y="247.723" width="6.88163" height="6.88163" fill="#6ECCE5"/>
<rect x="258.056" y="137.615" width="3.44082" height="48.1714" rx="1.72041" fill="#0055DC"/>
<rect x="261.497" y="137.615" width="3.44082" height="10.3225" rx="1.72041" transform="rotate(90 261.497 137.615)" fill="#0055DC"/>
<mask id="path-31-outside-2_2209_11796" maskUnits="userSpaceOnUse" x="623.351" y="213.92" width="40" height="162" fill="black">
<rect fill="white" x="623.351" y="213.92" width="40" height="162"/>
<path fill-rule="evenodd" clip-rule="evenodd" d="M637.377 222.827C637.437 222.617 637.468 222.399 637.468 222.176C637.468 220.378 635.427 218.92 632.909 218.92C630.392 218.92 628.351 220.378 628.351 222.176C628.351 222.399 628.382 222.617 628.442 222.827H628.352V301.316H628.351V317.617V343.58V344.786V344.788H628.351L631.254 351.709H630.955H629.652V352.917H631.314L632.909 358.285L634.504 352.917H636.165V351.709H634.863H634.564L637.467 344.788H637.468V344.786V344.786H637.469V343.818V222.827H637.377ZM654.552 219.822C652.519 219.822 650.87 221.47 650.87 223.504V322.39C650.87 323.393 651.271 324.303 651.922 324.967V328.177H652.974V330.28H654.026V331.332L654.552 333.436L655.078 331.332V330.28H656.13V328.177H657.182V324.967C657.833 324.303 658.234 323.394 658.234 322.39V223.504C658.234 221.47 656.586 219.822 654.552 219.822Z"/>
</mask>
<path fill-rule="evenodd" clip-rule="evenodd" d="M637.377 222.827C637.437 222.617 637.468 222.399 637.468 222.176C637.468 220.378 635.427 218.92 632.909 218.92C630.392 218.92 628.351 220.378 628.351 222.176C628.351 222.399 628.382 222.617 628.442 222.827H628.352V301.316H628.351V317.617V343.58V344.786V344.788H628.351L631.254 351.709H630.955H629.652V352.917H631.314L632.909 358.285L634.504 352.917H636.165V351.709H634.863H634.564L637.467 344.788H637.468V344.786V344.786H637.469V343.818V222.827H637.377ZM654.552 219.822C652.519 219.822 650.87 221.47 650.87 223.504V322.39C650.87 323.393 651.271 324.303 651.922 324.967V328.177H652.974V330.28H654.026V331.332L654.552 333.436L655.078 331.332V330.28H656.13V328.177H657.182V324.967C657.833 324.303 658.234 323.394 658.234 322.39V223.504C658.234 221.47 656.586 219.822 654.552 219.822Z" fill="white"/>
<path d="M637.377 222.827L632.567 221.461L630.759 227.827H637.377V222.827ZM628.442 222.827V227.827H635.059L633.251 221.461L628.442 222.827ZM628.352 222.827V217.827H623.352V222.827H628.352ZM628.352 301.316V306.316H633.352V301.316H628.352ZM628.351 301.316V296.316H623.351V301.316H628.351ZM628.351 344.788H623.351V349.788H628.351V344.788ZM628.351 344.788L632.962 342.853L631.676 339.788H628.351V344.788ZM631.254 351.709V356.709H638.774L635.865 349.775L631.254 351.709ZM629.652 351.709V346.709H624.652V351.709H629.652ZM629.652 352.917H624.652V357.917H629.652V352.917ZM631.314 352.917L636.107 351.493L635.044 347.917H631.314V352.917ZM632.909 358.285L628.116 359.709L632.909 375.84L637.702 359.709L632.909 358.285ZM634.504 352.917V347.917H630.773L629.711 351.493L634.504 352.917ZM636.165 352.917V357.917H641.165V352.917H636.165ZM636.165 351.709H641.165V346.709H636.165V351.709ZM634.564 351.709L629.953 349.775L627.045 356.709H634.564V351.709ZM637.467 344.788V339.788H634.143L632.857 342.853L637.467 344.788ZM637.468 344.788V349.788H642.468V344.788H637.468ZM637.468 344.786V339.786H632.468V344.786H637.468ZM637.469 344.786V349.786H642.469V344.786H637.469ZM637.469 222.827H642.469V217.827H637.469V222.827ZM651.922 324.967H656.922V322.926L655.493 321.468L651.922 324.967ZM651.922 328.177H646.922V333.177H651.922V328.177ZM652.974 328.177H657.974V323.177H652.974V328.177ZM652.974 330.28H647.974V335.28H652.974V330.28ZM654.026 330.28H659.026V325.28H654.026V330.28ZM654.026 331.332H649.026V331.948L649.175 332.545L654.026 331.332ZM654.552 333.436L649.701 334.649H659.403L654.552 333.436ZM655.078 331.332L659.929 332.545L660.078 331.948V331.332H655.078ZM655.078 330.28V325.28H650.078V330.28H655.078ZM656.13 330.28V335.28H661.13V330.28H656.13ZM656.13 328.177V323.177H651.13V328.177H656.13ZM657.182 328.177V333.177H662.182V328.177H657.182ZM657.182 324.967L653.611 321.468L652.182 322.926V324.967H657.182ZM632.468 222.176C632.468 221.926 632.504 221.684 632.567 221.461L642.187 224.193C642.369 223.549 642.468 222.872 642.468 222.176H632.468ZM632.909 223.92C633.246 223.92 633.342 224.025 633.227 223.942C633.12 223.866 632.468 223.311 632.468 222.176H642.468C642.468 219.243 640.795 217.059 639.039 215.805C637.273 214.544 635.09 213.92 632.909 213.92V223.92ZM633.351 222.176C633.351 223.311 632.698 223.866 632.592 223.942C632.476 224.025 632.572 223.92 632.909 223.92V213.92C630.728 213.92 628.545 214.544 626.78 215.805C625.023 217.059 623.351 219.243 623.351 222.176H633.351ZM633.251 221.461C633.315 221.684 633.351 221.926 633.351 222.176H623.351C623.351 222.872 623.449 223.549 623.632 224.193L633.251 221.461ZM628.442 217.827H628.352V227.827H628.442V217.827ZM623.352 222.827V301.316H633.352V222.827H623.352ZM628.352 296.316H628.351V306.316H628.352V296.316ZM623.351 301.316V317.617H633.351V301.316H623.351ZM623.351 317.617V343.58H633.351V317.617H623.351ZM623.351 343.58V344.786H633.351V343.58H623.351ZM623.351 344.786V344.788H633.351V344.786H623.351ZM628.351 349.788H628.351V339.788H628.351V349.788ZM623.74 346.722L626.644 353.643L635.865 349.775L632.962 342.853L623.74 346.722ZM631.254 346.709H630.955V356.709H631.254V346.709ZM630.955 346.709H629.652V356.709H630.955V346.709ZM624.652 351.709V352.917H634.652V351.709H624.652ZM629.652 357.917H631.314V347.917H629.652V357.917ZM626.521 354.341L628.116 359.709L637.702 356.861L636.107 351.493L626.521 354.341ZM637.702 359.709L639.297 354.341L629.711 351.493L628.116 356.861L637.702 359.709ZM634.504 357.917H636.165V347.917H634.504V357.917ZM641.165 352.917V351.709H631.165V352.917H641.165ZM636.165 346.709H634.863V356.709H636.165V346.709ZM634.863 346.709H634.564V356.709H634.863V346.709ZM639.175 353.643L642.078 346.722L632.857 342.853L629.953 349.775L639.175 353.643ZM637.467 349.788H637.468V339.788H637.467V349.788ZM642.468 344.788V344.786H632.468V344.788H642.468ZM642.468 344.786V344.786H632.468V344.786H642.468ZM637.468 349.786H637.469V339.786H637.468V349.786ZM642.469 344.786V343.818H632.469V344.786H642.469ZM642.469 343.818V222.827H632.469V343.818H642.469ZM637.469 217.827H637.377V227.827H637.469V217.827ZM655.87 223.504C655.87 224.231 655.28 224.822 654.552 224.822V214.822C649.757 214.822 645.87 218.709 645.87 223.504H655.87ZM655.87 322.39V223.504H645.87V322.39H655.87ZM655.493 321.468C655.721 321.7 655.87 322.033 655.87 322.39H645.87C645.87 324.754 646.821 326.905 648.35 328.466L655.493 321.468ZM656.922 328.177V324.967H646.922V328.177H656.922ZM652.974 323.177H651.922V333.177H652.974V323.177ZM657.974 330.28V328.177H647.974V330.28H657.974ZM654.026 325.28H652.974V335.28H654.026V325.28ZM659.026 331.332V330.28H649.026V331.332H659.026ZM659.403 332.223L658.877 330.119L649.175 332.545L649.701 334.649L659.403 332.223ZM650.227 330.119L649.701 332.223L659.403 334.649L659.929 332.545L650.227 330.119ZM650.078 330.28V331.332H660.078V330.28H650.078ZM656.13 325.28H655.078V335.28H656.13V325.28ZM651.13 328.177V330.28H661.13V328.177H651.13ZM657.182 323.177H656.13V333.177H657.182V323.177ZM652.182 324.967V328.177H662.182V324.967H652.182ZM653.234 322.39C653.234 322.033 653.383 321.7 653.611 321.468L660.753 328.467C662.282 326.906 663.234 324.754 663.234 322.39H653.234ZM653.234 223.504V322.39H663.234V223.504H653.234ZM654.552 224.822C653.824 224.822 653.234 224.231 653.234 223.504H663.234C663.234 218.709 659.347 214.822 654.552 214.822V224.822Z" fill="white" mask="url(#path-31-outside-2_2209_11796)"/>
<rect x="650.87" y="219.822" width="7.36391" height="106.251" rx="3.68195" fill="#0055DC"/>
<path d="M654.026 331.332V326.072V322.916H655.078V331.332L654.552 333.436L654.026 331.332Z" fill="#0055DC"/>
<rect x="651.922" y="321.865" width="5.25994" height="6.31192" fill="#0055DC"/>
<rect x="652.974" y="323.969" width="3.15596" height="6.31192" fill="#0055DC"/>
<rect x="628.352" y="222.826" width="9.11731" height="121.959" fill="#0055DC"/>
<path d="M628.351 344.785V317.616V301.314H637.468V344.785L632.909 355.653L628.351 344.785Z" fill="#6ECCE5"/>
<rect x="628.352" y="222.826" width="9.11731" height="120.991" fill="#0055DC"/>
<rect x="632.259" y="222.826" width="1.30247" height="121.959" fill="white"/>
<rect x="628.351" y="343.58" width="9.11731" height="1.20752" fill="white"/>
<path d="M634.863 351.709H630.955L632.909 358.285L634.863 351.709Z" fill="#003682"/>
<rect x="629.652" y="351.709" width="6.51237" height="1.20752" fill="white"/>
<ellipse cx="632.909" cy="222.176" rx="4.55866" ry="3.25618" fill="#003682"/>
<mask id="path-45-outside-3_2209_11796" maskUnits="userSpaceOnUse" x="214" y="121" width="19" height="145" fill="black">
<rect fill="white" x="214" y="121" width="19" height="145"/>
<path fill-rule="evenodd" clip-rule="evenodd" d="M226.919 129.428C226.971 129.243 226.999 129.052 226.999 128.857C226.999 127.279 225.208 126 222.999 126C220.791 126 219 127.279 219 128.857C219 129.052 219.027 129.243 219.08 129.428H219.001V198.288H219V212.589V235.367V236.426V236.427H219L221.548 242.499H221.285H220.142V243.558H221.6L222.999 248.268L224.398 243.558H225.856V242.499H224.713H224.451L226.998 236.427H226.999V236.426V236.425H227V235.576V129.428H226.919Z"/>
</mask>
<path fill-rule="evenodd" clip-rule="evenodd" d="M226.919 129.428C226.971 129.243 226.999 129.052 226.999 128.857C226.999 127.279 225.208 126 222.999 126C220.791 126 219 127.279 219 128.857C219 129.052 219.027 129.243 219.08 129.428H219.001V198.288H219V212.589V235.367V236.426V236.427H219L221.548 242.499H221.285H220.142V243.558H221.6L222.999 248.268L224.398 243.558H225.856V242.499H224.713H224.451L226.998 236.427H226.999V236.426V236.425H227V235.576V129.428H226.919Z" fill="white"/>
<path d="M226.919 129.428L222.109 128.062L220.301 134.428H226.919V129.428ZM219.08 129.428V134.428H225.697L223.89 128.062L219.08 129.428ZM219.001 129.428V124.428H214.001V129.428H219.001ZM219.001 198.288V203.288H224.001V198.288H219.001ZM219 198.288V193.288H214V198.288H219ZM219 236.427H214V241.427H219V236.427ZM219 236.427L223.611 234.492L222.325 231.427H219V236.427ZM221.548 242.499V247.499H229.067L226.158 240.565L221.548 242.499ZM220.142 242.499V237.499H215.142V242.499H220.142ZM220.142 243.558H215.142V248.558H220.142V243.558ZM221.6 243.558L226.393 242.134L225.33 238.558H221.6V243.558ZM222.999 248.268L218.206 249.692L222.999 265.824L227.792 249.692L222.999 248.268ZM224.398 243.558V238.558H220.668L219.605 242.134L224.398 243.558ZM225.856 243.558V248.558H230.856V243.558H225.856ZM225.856 242.499H230.856V237.499H225.856V242.499ZM224.451 242.499L219.84 240.565L216.932 247.499H224.451V242.499ZM226.998 236.427V231.427H223.674L222.388 234.492L226.998 236.427ZM226.999 236.427V241.427H231.999V236.427H226.999ZM226.999 236.425V231.425H221.999V236.425H226.999ZM227 236.425V241.425H232V236.425H227ZM227 129.428H232V124.428H227V129.428ZM221.999 128.857C221.999 128.579 222.038 128.311 222.109 128.062L231.729 130.793C231.904 130.176 231.999 129.525 231.999 128.857H221.999ZM222.999 131C223.182 131 223.138 131.06 222.921 130.905C222.714 130.757 221.999 130.102 221.999 128.857H231.999C231.999 126.034 230.389 123.95 228.734 122.768C227.069 121.579 225.026 121 222.999 121V131ZM224 128.857C224 130.102 223.285 130.757 223.078 130.905C222.861 131.06 222.817 131 222.999 131V121C220.973 121 218.93 121.579 217.265 122.768C215.61 123.95 214 126.034 214 128.857H224ZM223.89 128.062C223.96 128.311 224 128.579 224 128.857H214C214 129.525 214.095 130.176 214.27 130.793L223.89 128.062ZM219.001 134.428H219.08V124.428H219.001V134.428ZM224.001 198.288V129.428H214.001V198.288H224.001ZM219 203.288H219.001V193.288H219V203.288ZM224 212.589V198.288H214V212.589H224ZM224 235.367V212.589H214V235.367H224ZM224 236.426V235.367H214V236.426H224ZM224 236.427V236.426H214V236.427H224ZM219 231.427H219V241.427H219V231.427ZM226.158 240.565L223.611 234.492L214.39 238.361L216.937 244.433L226.158 240.565ZM221.285 247.499H221.548V237.499H221.285V247.499ZM220.142 247.499H221.285V237.499H220.142V247.499ZM225.142 243.558V242.499H215.142V243.558H225.142ZM221.6 238.558H220.142V248.558H221.6V238.558ZM227.792 246.844L226.393 242.134L216.807 244.982L218.206 249.692L227.792 246.844ZM219.605 242.134L218.206 246.844L227.792 249.692L229.191 244.982L219.605 242.134ZM225.856 238.558H224.398V248.558H225.856V238.558ZM220.856 242.499V243.558H230.856V242.499H220.856ZM224.713 247.499H225.856V237.499H224.713V247.499ZM224.451 247.499H224.713V237.499H224.451V247.499ZM222.388 234.492L219.84 240.565L229.062 244.433L231.609 238.361L222.388 234.492ZM226.999 231.427H226.998V241.427H226.999V231.427ZM221.999 236.426V236.427H231.999V236.426H221.999ZM221.999 236.425V236.426H231.999V236.425H221.999ZM227 231.425H226.999V241.425H227V231.425ZM222 235.576V236.425H232V235.576H222ZM222 129.428V235.576H232V129.428H222ZM226.919 134.428H227V124.428H226.919V134.428Z" fill="white" mask="url(#path-45-outside-3_2209_11796)"/>
<rect x="219.001" y="129.428" width="7.99883" height="106.998" fill="#6ECCE5"/>
<path d="M219 236.425V212.589V198.287H226.999V236.425L222.999 245.959L219 236.425Z" fill="#6ECCE5"/>
<rect x="219.001" y="129.428" width="7.99883" height="106.148" fill="#6ECCE5"/>
<rect x="222.429" y="129.428" width="1.14269" height="106.998" fill="#C5EBF5"/>
<rect x="219" y="235.367" width="7.99883" height="1.05938" fill="white"/>
<path d="M224.713 242.5H221.285L222.999 248.269L224.713 242.5Z" fill="#0055DC"/>
<rect x="220.142" y="242.5" width="5.71345" height="1.05938" fill="white"/>
<ellipse cx="222.999" cy="128.857" rx="3.99941" ry="2.85672" fill="#C5EBF5"/>
<rect x="276.559" y="120.568" width="324.004" height="242.099" fill="white" stroke="white" stroke-width="6" stroke-linejoin="round"/>
<path d="M597.242 136.084H279.238V360.229H597.242V136.084Z" fill="white"/>
<path d="M278 123.568V360.999H598.297V123.568H278ZM280.122 358.965V147.024H596.175V358.965H280.122Z" fill="#0055DC"/>
<path d="M288.611 139.112C290.776 139.112 292.53 137.436 292.53 135.368C292.53 133.3 290.776 131.623 288.611 131.623C286.447 131.623 284.692 133.3 284.692 135.368C284.692 137.436 286.447 139.112 288.611 139.112Z" fill="white"/>
<path d="M301.287 139.112C303.452 139.112 305.207 137.436 305.207 135.368C305.207 133.3 303.452 131.623 301.287 131.623C299.123 131.623 297.368 133.3 297.368 135.368C297.368 137.436 299.123 139.112 301.287 139.112Z" fill="white"/>
<path d="M313.962 139.112C316.126 139.112 317.881 137.436 317.881 135.368C317.881 133.3 316.126 131.623 313.962 131.623C311.797 131.623 310.042 133.3 310.042 135.368C310.042 137.436 311.797 139.112 313.962 139.112Z" fill="white"/>
<rect width="16.1332" height="1.32788" transform="matrix(1 0 0 -1 289.929 161.006)" fill="#0055DC"/>
<rect width="16.1332" height="1.32788" transform="matrix(1 0 0 -1 289.929 198.188)" fill="#0055DC"/>
<rect width="16.1332" height="1.32788" transform="matrix(1 0 0 -1 289.929 235.367)" fill="#0055DC"/>
<rect width="16.1332" height="1.32788" transform="matrix(1 0 0 -1 289.929 272.549)" fill="#0055DC"/>
<rect width="16.1332" height="1.32788" transform="matrix(1 0 0 -1 289.929 309.729)" fill="#0055DC"/>
<rect width="16.1332" height="1.32788" transform="matrix(1 0 0 -1 289.929 198.188)" fill="#0055DC"/>
<rect width="16.1332" height="1.32788" transform="matrix(1 0 0 -1 289.929 235.367)" fill="#0055DC"/>
<rect width="16.1332" height="1.32788" transform="matrix(1 0 0 -1 289.929 272.549)" fill="#0055DC"/>
<rect width="16.1332" height="1.32788" transform="matrix(1 0 0 -1 289.929 309.729)" fill="#0055DC"/>
<rect width="16.1332" height="1.32788" transform="matrix(1 0 0 -1 289.929 346.91)" fill="#0055DC"/>
<rect width="8.06658" height="1.32788" transform="matrix(1 0 0 -1 289.929 179.596)" fill="#0055DC"/>
<rect width="8.06658" height="1.32788" transform="matrix(1 0 0 -1 289.929 216.777)" fill="#0055DC"/>
<rect width="8.06658" height="1.32788" transform="matrix(1 0 0 -1 289.929 253.957)" fill="#0055DC"/>
<rect width="8.06658" height="1.32788" transform="matrix(1 0 0 -1 289.929 291.139)" fill="#0055DC"/>
<rect width="8.06658" height="1.32788" transform="matrix(1 0 0 -1 289.929 328.318)" fill="#0055DC"/>
<rect x="289.929" y="168.973" width="5.37772" height="1.32788" fill="#0055DC"/>
<rect x="289.929" y="206.154" width="5.37772" height="1.32788" fill="#0055DC"/>
<rect x="289.929" y="243.334" width="5.37772" height="1.32788" fill="#0055DC"/>
<rect x="289.929" y="280.516" width="5.37772" height="1.32788" fill="#0055DC"/>
<rect x="289.929" y="317.695" width="5.37772" height="1.32788" fill="#0055DC"/>
<rect x="289.929" y="187.564" width="5.37772" height="1.32788" fill="#0055DC"/>
<rect x="289.929" y="224.744" width="5.37772" height="1.32788" fill="#0055DC"/>
<rect x="289.929" y="261.926" width="5.37772" height="1.32788" fill="#0055DC"/>
<rect x="289.929" y="299.105" width="5.37772" height="1.32788" fill="#0055DC"/>
<rect x="289.929" y="336.287" width="5.37772" height="1.32788" fill="#0055DC"/>
<rect x="510.5" y="167.5" width="72" height="8" fill="#C5EBF5" stroke="#C5EBF5"/>
<rect x="510.5" y="184.5" width="72" height="9" fill="#C5EBF5" stroke="#C5EBF5"/>
<rect x="316.606" y="326.768" width="57.1351" height="18.7881" stroke="#C5EBF5" stroke-width="3"/>
<rect x="316.606" y="295.393" width="57.1351" height="18.7881" stroke="#C5EBF5" stroke-width="3"/>
<rect x="316.606" y="264.018" width="57.1351" height="18.7881" stroke="#C5EBF5" stroke-width="3"/>
<path d="M451.5 298.5H581.5V343.5H451.5V298.5Z" fill="white" stroke="#C5EBF5" stroke-width="3"/>
<path d="M426.921 383.006C423.076 381.084 332.945 334.944 332.945 240.289V159.431L355.902 156.151C394.239 150.723 417.874 126.296 419.005 125.165L438.795 103L458.812 125.278C458.925 125.391 482.674 150.61 521.802 156.151L544.759 159.431V240.289C544.759 334.944 454.628 381.084 450.783 383.006L438.795 389L426.921 383.006Z" fill="#C5EBF5" stroke="#0055DC" stroke-width="3" stroke-miterlimit="10"/>
<path d="M436.378 147.741L436.481 147.673L436.826 147.288L438.921 144.954L441.027 147.251C441.034 147.259 441.041 147.267 441.046 147.273C441.088 147.322 441.132 147.37 441.171 147.414C441.253 147.504 441.356 147.615 441.478 147.743C441.723 148.002 442.066 148.355 442.505 148.79C443.383 149.661 444.656 150.871 446.309 152.324C449.614 155.228 454.453 159.111 460.71 163.178C473.215 171.305 491.459 180.215 514.483 183.442C514.485 183.442 514.487 183.443 514.489 183.443L516.944 183.796V240.204C516.944 277.529 498.749 305.505 479.894 324.496C461.278 343.246 442.27 352.968 440.403 353.897L438.869 354.581L437.551 353.93C436.141 353.233 416.865 343.504 397.994 324.496C379.139 305.505 360.944 277.529 360.944 240.204V183.796L363.399 183.443C363.402 183.442 363.404 183.442 363.406 183.442C386.381 180.214 404.599 171.275 417.1 163.136C423.355 159.064 428.197 155.18 431.509 152.287C433.166 150.84 434.441 149.64 435.317 148.789C435.756 148.363 436.092 148.027 436.322 147.797C436.342 147.777 436.36 147.758 436.378 147.741Z" fill="#E2F5FA" stroke="#E2F5FA" stroke-width="8"/>
<mask id="mask1_2209_11796" style="mask-type:alpha" maskUnits="userSpaceOnUse" x="286" y="144" width="309" height="241">
<path d="M288.5 184.564V145.305H383.241V184.564H288.5Z" fill="white" stroke="#0055DC" stroke-linejoin="round"/>
<path d="M340.724 234.185V194.926H435.464V234.185H340.724Z" fill="white" stroke="#0055DC" stroke-linejoin="round"/>
<path d="M286.501 284.744V245.484H381.242V284.744H286.501Z" fill="white" stroke="#0055DC" stroke-linejoin="round"/>
<path d="M340.724 334.367V295.107H435.464V334.367H340.724Z" fill="white" stroke="#0055DC" stroke-linejoin="round"/>
<path d="M499.327 184.564V145.305H594.068V184.564H499.327Z" fill="white" stroke="#0055DC" stroke-linejoin="round"/>
<path d="M396.5 184.5V145.5H486.5V184.5H396.5Z" fill="white" stroke="#0055DC" stroke-linejoin="round"/>
<path d="M448.097 234.185V194.926H542.837V234.185H448.097Z" fill="white" stroke="#0055DC" stroke-linejoin="round"/>
<path d="M499.29 284.744V245.484H594.031V284.744H499.29Z" fill="white" stroke="#0055DC" stroke-linejoin="round"/>
<path d="M393.5 284.5V245.5H486.5V284.5H393.5Z" fill="white" stroke="#0055DC" stroke-linejoin="round"/>
<path d="M448.5 332.5V295.5H542.5V332.5H448.5Z" fill="white" stroke="#0055DC" stroke-linejoin="round"/>
<path d="M393.911 383.988V344.729H488.652V383.988H393.911Z" fill="white" stroke="#0055DC" stroke-linejoin="round"/>
</mask>
<g mask="url(#mask1_2209_11796)">
<path d="M439.525 356.657L436.594 355.203C433.501 353.672 360.849 316.831 360.849 242.226V184.615L366.478 183.819C392.236 180.131 416.122 168.357 434.627 150.227L439.515 144.805L444.425 150.227C462.93 168.357 486.816 180.131 512.574 183.819L518.203 184.615V242.226C518.203 316.831 445.551 353.672 442.458 355.203L439.525 356.657Z" fill="white"/>
</g>
<path d="M360.854 190.586H517.052" stroke="#E2F5FA" stroke-width="5" stroke-linejoin="round"/>
<path d="M360.854 239.062H517.052" stroke="#E2F5FA" stroke-width="5" stroke-linejoin="round"/>
<path d="M371.628 290.23H506.281" stroke="#E2F5FA" stroke-width="5" stroke-linejoin="round"/>
<path d="M422.131 339.895L455.575 339.895" stroke="#E2F5FA" stroke-width="5" stroke-linecap="round" stroke-linejoin="round"/>
<path d="M387.787 190.587V179.814" stroke="#E2F5FA" stroke-width="5" stroke-linejoin="round"/>
<path d="M387.787 290.231V239.062" stroke="#E2F5FA" stroke-width="5" stroke-linejoin="round"/>
<path d="M441.647 239.061V190.586" stroke="#E2F5FA" stroke-width="5" stroke-linejoin="round"/>
<path d="M441.647 338.706V290.23" stroke="#E2F5FA" stroke-width="5" stroke-linejoin="round"/>
<path d="M492.814 190.587V179.814" stroke="#E2F5FA" stroke-width="5" stroke-linejoin="round"/>
<path d="M492.814 290.231V239.062" stroke="#E2F5FA" stroke-width="5" stroke-linejoin="round"/>
<path d="M360.854 190.586H517.052" stroke="#0055DC" stroke-width="3.5" stroke-linejoin="round"/>
<path d="M360.854 239.062H517.052" stroke="#0055DC" stroke-width="3.5" stroke-linejoin="round"/>
<path d="M371.628 290.23H506.281" stroke="#0055DC" stroke-width="3.5" stroke-linejoin="round"/>
<path d="M412.021 338.705H465.882" stroke="#0055DC" stroke-width="3.5" stroke-linejoin="round"/>
<path d="M387.787 190.587V179.814" stroke="#0055DC" stroke-width="3.5" stroke-linejoin="round"/>
<path d="M387.787 290.231V239.062" stroke="#0055DC" stroke-width="3.5" stroke-linejoin="round"/>
<path d="M441.647 239.061V190.586" stroke="#0055DC" stroke-width="3.5" stroke-linejoin="round"/>
<path d="M441.647 338.706V290.23" stroke="#0055DC" stroke-width="3.5" stroke-linejoin="round"/>
<path d="M492.814 190.587V179.814" stroke="#0055DC" stroke-width="3.5" stroke-linejoin="round"/>
<path d="M492.814 290.231V239.062" stroke="#0055DC" stroke-width="3.5" stroke-linejoin="round"/>
<path d="M436.38 147.741L436.483 147.673L436.828 147.288L438.924 144.954L441.029 147.251C441.037 147.259 441.043 147.267 441.049 147.273C441.091 147.322 441.134 147.37 441.174 147.414C441.255 147.504 441.358 147.615 441.48 147.743C441.725 148.002 442.068 148.355 442.507 148.79C443.385 149.661 444.658 150.871 446.311 152.324C449.616 155.228 454.455 159.111 460.712 163.178C473.217 171.305 491.462 180.215 514.486 183.442C514.488 183.442 514.49 183.443 514.492 183.443L516.946 183.796V240.204C516.946 277.529 498.751 305.505 479.896 324.496C461.281 343.246 442.272 352.968 440.406 353.897L438.872 354.581L437.554 353.93C436.144 353.233 416.868 343.504 397.996 324.496C379.141 305.505 360.946 277.529 360.946 240.204V183.796L363.402 183.443C363.404 183.442 363.406 183.442 363.409 183.442C386.383 180.214 404.601 171.275 417.103 163.136C423.358 159.064 428.2 155.18 431.512 152.287C433.169 150.84 434.443 149.64 435.32 148.789C435.759 148.363 436.095 148.027 436.325 147.797C436.344 147.777 436.363 147.758 436.38 147.741Z" stroke="#E2F5FA" stroke-width="8"/>
</svg>
